# xmcd CD database file
#
# Track frame offsets:
#	150
#	26165
#	47345
#	60380
#	62107
#	77268
#	86163
#	130917
#	153820
#	171578
#
# Disc length: 2418 seconds
#
# Revision: 5
# Processed by: cddbd v1.5.1PL0 Copyright (c) Steve Scherf et al.
# Submitted via: CDex 1.51
#
DISCID=7709700a
DTITLE=MAHAVISHNU ORCHESTRA - Birds Of Fire
DYEAR=1972
DGENRE=Fusion
TTITLE0=Birds Of Fire
TTITLE1=Miles Beyond
TTITLE2=Celestial Terrestial Commuters
TTITLE3=Sapphire Bullets Of Pure Love
TTITLE4=Thousand Island Park
TTITLE5=Hope
TTITLE6=One Word
TTITLE7=Sanctuary
TTITLE8=Open Country Joy
TTITLE9=Resolution
EXTD=YEAR: 1972
EXTT0=
EXTT1=
EXTT2=
EXTT3=
EXTT4=
EXTT5=
EXTT6=
EXTT7=
EXTT8=
EXTT9=
PLAYORDER=
